<svg width="216" height="196" viewBox="0 0 216 196" fill="none" xmlns="http://www.w3.org/2000/svg">
<path d="M68 48H18.62C13.68 48 11.21 48 9.8 46.85C8.94629 46.1561 8.34525 45.2001 8.09001 44.13C7.67001 42.37 8.78 40.2 10.99 35.85C16.53 24.94 19.3 19.48 23.62 15.67C26.3141 13.2784 29.417 11.3916 32.78 10.1C38.18 8 44.37 8 56.76 8H147.05C175.79 8 190.15 8 199.08 16.79C208 25.57 208 39.72 208 68V118" stroke="#fefefe" stroke-width="15" stroke-linecap="round" stroke-linejoin="round"/>
<path d="M138 168H78M38 168C30.0435 168 22.4129 164.839 16.7868 159.213C11.1607 153.587 8 145.956 8 138V108M8 108H188C197.43 108 202.14 108 205.07 110.93C208 113.86 208 118.57 208 128V138C208 152.14 208 159.21 203.6 163.6C199.22 168 192.15 168 178 168M8 108L33.25 70.13C38.87 61.69 41.69 57.47 45.23 54.5C47.89 52.26 50.84 50.56 53.96 49.46C58.1 48 62.61 48 71.62 48C77.58 48 80.56 48 82.8 49.48C84.47 50.58 85.85 52.23 86.77 54.23C88 56.93 88 60.5 88 67.66V108M168 48H148" stroke="#fefefe" stroke-width="15" stroke-linecap="round" stroke-linejoin="round"/>
<path d="M58 188C46.9543 188 38 179.046 38 168C38 156.954 46.9543 148 58 148C69.0457 148 78 156.954 78 168C78 179.046 69.0457 188 58 188Z" stroke="#fefefe" stroke-width="15" stroke-linecap="round" stroke-linejoin="round"/>
<path d="M158 188C146.954 188 138 179.046 138 168C138 156.954 146.954 148 158 148C169.046 148 178 156.954 178 168C178 179.046 169.046 188 158 188Z" stroke="#fefefe" stroke-width="15" stroke-linecap="round" stroke-linejoin="round"/>
</svg>
